<svg width="30" height="30" viewBox="0 0 30 30" fill="none" xmlns="http://www.w3.org/2000/svg">
<rect width="30" height="30" rx="15" fill="white"/>
<path d="M19.5708 12.2268C20.0757 11.7219 20.0757 10.9033 19.5708 10.3984C19.0659 9.89349 18.2473 9.89349 17.7424 10.3984L14.9998 13.141L12.2571 10.3984C11.7522 9.89349 10.9336 9.89349 10.4287 10.3984C9.9238 10.9033 9.9238 11.7219 10.4287 12.2268L13.1713 14.9695L10.4287 17.7121C9.9238 18.217 9.9238 19.0356 10.4287 19.5405C10.9336 20.0454 11.7522 20.0454 12.2571 19.5405L14.9998 16.7979L17.7424 19.5405C18.2473 20.0454 19.0659 20.0454 19.5708 19.5405C20.0757 19.0356 20.0757 18.217 19.5708 17.7121L16.8282 14.9695L19.5708 12.2268Z" fill="black"/>
</svg>
